<mxfile host="app.diagrams.net" agent="Mozilla/5.0 (Macintosh; Intel Mac OS X 10_15_7) AppleWebKit/537.36 (KHTML, like Gecko) Chrome/132.0.0.0 Safari/537.36" version="26.0.14">
  <diagram name="Page-1" id="E73bntxt86W5P2doF7nK">
    <mxGraphModel dx="1279" dy="712" grid="1" gridSize="10" guides="1" tooltips="1" connect="1" arrows="1" fold="1" page="1" pageScale="1" pageWidth="850" pageHeight="1100" math="0" shadow="0">
      <root>
        <mxCell id="0" />
        <mxCell id="1" parent="0" />
        <mxCell id="UpDTwZIlFveo_wN8iUtt-25" style="edgeStyle=orthogonalEdgeStyle;rounded=0;orthogonalLoop=1;jettySize=auto;html=1;exitX=0.5;exitY=1;exitDx=0;exitDy=0;entryX=0.5;entryY=0;entryDx=0;entryDy=0;" parent="1" source="UpDTwZIlFveo_wN8iUtt-1" target="UpDTwZIlFveo_wN8iUtt-2" edge="1">
          <mxGeometry relative="1" as="geometry" />
        </mxCell>
        <mxCell id="UpDTwZIlFveo_wN8iUtt-1" value="User" style="ellipse;whiteSpace=wrap;html=1;" parent="1" vertex="1">
          <mxGeometry x="120" y="150" width="120" height="80" as="geometry" />
        </mxCell>
        <mxCell id="UpDTwZIlFveo_wN8iUtt-28" style="edgeStyle=orthogonalEdgeStyle;rounded=0;orthogonalLoop=1;jettySize=auto;html=1;exitX=0.25;exitY=1;exitDx=0;exitDy=0;entryX=0.25;entryY=0;entryDx=0;entryDy=0;" parent="1" source="UpDTwZIlFveo_wN8iUtt-2" target="UpDTwZIlFveo_wN8iUtt-3" edge="1">
          <mxGeometry relative="1" as="geometry" />
        </mxCell>
        <mxCell id="W_Wss-8nVR4Y7HCD9j6q-1" style="edgeStyle=orthogonalEdgeStyle;rounded=0;orthogonalLoop=1;jettySize=auto;html=1;exitX=0.5;exitY=0;exitDx=0;exitDy=0;entryX=0.5;entryY=1;entryDx=0;entryDy=0;" parent="1" source="UpDTwZIlFveo_wN8iUtt-2" target="UpDTwZIlFveo_wN8iUtt-1" edge="1">
          <mxGeometry relative="1" as="geometry" />
        </mxCell>
        <mxCell id="UpDTwZIlFveo_wN8iUtt-2" value="Clients&lt;br&gt;Tablet/Mobile/Web" style="rounded=1;whiteSpace=wrap;html=1;" parent="1" vertex="1">
          <mxGeometry x="120" y="310" width="120" height="60" as="geometry" />
        </mxCell>
        <mxCell id="UpDTwZIlFveo_wN8iUtt-27" style="edgeStyle=orthogonalEdgeStyle;rounded=0;orthogonalLoop=1;jettySize=auto;html=1;exitX=0.25;exitY=1;exitDx=0;exitDy=0;entryX=0.25;entryY=0;entryDx=0;entryDy=0;" parent="1" source="UpDTwZIlFveo_wN8iUtt-3" target="UpDTwZIlFveo_wN8iUtt-4" edge="1">
          <mxGeometry relative="1" as="geometry" />
        </mxCell>
        <mxCell id="UpDTwZIlFveo_wN8iUtt-62" style="edgeStyle=orthogonalEdgeStyle;rounded=0;orthogonalLoop=1;jettySize=auto;html=1;exitX=0.75;exitY=0;exitDx=0;exitDy=0;entryX=0.75;entryY=1;entryDx=0;entryDy=0;" parent="1" source="UpDTwZIlFveo_wN8iUtt-3" target="UpDTwZIlFveo_wN8iUtt-2" edge="1">
          <mxGeometry relative="1" as="geometry" />
        </mxCell>
        <mxCell id="UpDTwZIlFveo_wN8iUtt-3" value="Sunco SDK" style="rounded=1;whiteSpace=wrap;html=1;" parent="1" vertex="1">
          <mxGeometry x="120" y="420" width="120" height="60" as="geometry" />
        </mxCell>
        <mxCell id="UpDTwZIlFveo_wN8iUtt-29" style="edgeStyle=orthogonalEdgeStyle;rounded=0;orthogonalLoop=1;jettySize=auto;html=1;exitX=0.25;exitY=1;exitDx=0;exitDy=0;entryX=0.25;entryY=0;entryDx=0;entryDy=0;" parent="1" source="UpDTwZIlFveo_wN8iUtt-4" target="UpDTwZIlFveo_wN8iUtt-6" edge="1">
          <mxGeometry relative="1" as="geometry" />
        </mxCell>
        <mxCell id="UpDTwZIlFveo_wN8iUtt-31" value="Webhook" style="edgeLabel;html=1;align=center;verticalAlign=middle;resizable=0;points=[];" parent="UpDTwZIlFveo_wN8iUtt-29" vertex="1" connectable="0">
          <mxGeometry x="-0.1333" y="-1" relative="1" as="geometry">
            <mxPoint as="offset" />
          </mxGeometry>
        </mxCell>
        <mxCell id="UpDTwZIlFveo_wN8iUtt-61" style="edgeStyle=orthogonalEdgeStyle;rounded=0;orthogonalLoop=1;jettySize=auto;html=1;exitX=0.75;exitY=0;exitDx=0;exitDy=0;entryX=0.75;entryY=1;entryDx=0;entryDy=0;" parent="1" source="UpDTwZIlFveo_wN8iUtt-4" target="UpDTwZIlFveo_wN8iUtt-3" edge="1">
          <mxGeometry relative="1" as="geometry" />
        </mxCell>
        <mxCell id="UpDTwZIlFveo_wN8iUtt-4" value="Sunco Server" style="rounded=1;whiteSpace=wrap;html=1;" parent="1" vertex="1">
          <mxGeometry x="120" y="530" width="120" height="60" as="geometry" />
        </mxCell>
        <mxCell id="UpDTwZIlFveo_wN8iUtt-30" style="edgeStyle=orthogonalEdgeStyle;rounded=0;orthogonalLoop=1;jettySize=auto;html=1;exitX=1;exitY=0.5;exitDx=0;exitDy=0;entryX=0;entryY=0.5;entryDx=0;entryDy=0;" parent="1" source="UpDTwZIlFveo_wN8iUtt-6" target="UpDTwZIlFveo_wN8iUtt-7" edge="1">
          <mxGeometry relative="1" as="geometry" />
        </mxCell>
        <mxCell id="UpDTwZIlFveo_wN8iUtt-6" value="Ottergate&lt;br&gt;API Gateway" style="rounded=1;whiteSpace=wrap;html=1;" parent="1" vertex="1">
          <mxGeometry x="120" y="680" width="120" height="60" as="geometry" />
        </mxCell>
        <mxCell id="UpDTwZIlFveo_wN8iUtt-11" style="edgeStyle=orthogonalEdgeStyle;rounded=0;orthogonalLoop=1;jettySize=auto;html=1;exitX=0.5;exitY=0;exitDx=0;exitDy=0;entryX=1;entryY=0.5;entryDx=0;entryDy=0;" parent="1" source="UpDTwZIlFveo_wN8iUtt-9" target="UpDTwZIlFveo_wN8iUtt-4" edge="1">
          <mxGeometry relative="1" as="geometry" />
        </mxCell>
        <mxCell id="UpDTwZIlFveo_wN8iUtt-12" value="Replies" style="edgeLabel;html=1;align=center;verticalAlign=middle;resizable=0;points=[];" parent="UpDTwZIlFveo_wN8iUtt-11" vertex="1" connectable="0">
          <mxGeometry x="0.3184" y="4" relative="1" as="geometry">
            <mxPoint as="offset" />
          </mxGeometry>
        </mxCell>
        <mxCell id="UpDTwZIlFveo_wN8iUtt-13" value="Zendesk Ticket&lt;br&gt;API" style="rounded=1;whiteSpace=wrap;html=1;" parent="1" vertex="1">
          <mxGeometry x="570" y="680" width="120" height="60" as="geometry" />
        </mxCell>
        <mxCell id="UpDTwZIlFveo_wN8iUtt-35" style="edgeStyle=orthogonalEdgeStyle;rounded=0;orthogonalLoop=1;jettySize=auto;html=1;exitX=0.25;exitY=1;exitDx=0;exitDy=0;" parent="1" source="UpDTwZIlFveo_wN8iUtt-18" target="UpDTwZIlFveo_wN8iUtt-19" edge="1">
          <mxGeometry relative="1" as="geometry" />
        </mxCell>
        <mxCell id="UpDTwZIlFveo_wN8iUtt-57" value="Prompt: &lt;br&gt;system prompt+&lt;br&gt;chat history+&lt;br&gt;tools+docs" style="edgeLabel;html=1;align=center;verticalAlign=middle;resizable=0;points=[];" parent="UpDTwZIlFveo_wN8iUtt-35" vertex="1" connectable="0">
          <mxGeometry x="-0.0889" y="1" relative="1" as="geometry">
            <mxPoint x="-18" y="-11" as="offset" />
          </mxGeometry>
        </mxCell>
        <mxCell id="UpDTwZIlFveo_wN8iUtt-36" style="edgeStyle=orthogonalEdgeStyle;rounded=0;orthogonalLoop=1;jettySize=auto;html=1;exitX=0.5;exitY=1;exitDx=0;exitDy=0;entryX=0.5;entryY=0;entryDx=0;entryDy=0;" parent="1" source="UpDTwZIlFveo_wN8iUtt-18" target="UpDTwZIlFveo_wN8iUtt-20" edge="1">
          <mxGeometry relative="1" as="geometry" />
        </mxCell>
        <mxCell id="UpDTwZIlFveo_wN8iUtt-51" style="edgeStyle=orthogonalEdgeStyle;rounded=0;orthogonalLoop=1;jettySize=auto;html=1;exitX=1;exitY=0.5;exitDx=0;exitDy=0;entryX=0;entryY=0.25;entryDx=0;entryDy=0;" parent="1" source="UpDTwZIlFveo_wN8iUtt-18" target="UpDTwZIlFveo_wN8iUtt-45" edge="1">
          <mxGeometry relative="1" as="geometry" />
        </mxCell>
        <mxCell id="UpDTwZIlFveo_wN8iUtt-52" value="Encode Query" style="edgeLabel;html=1;align=center;verticalAlign=middle;resizable=0;points=[];" parent="UpDTwZIlFveo_wN8iUtt-51" vertex="1" connectable="0">
          <mxGeometry x="0.1158" relative="1" as="geometry">
            <mxPoint as="offset" />
          </mxGeometry>
        </mxCell>
        <mxCell id="UpDTwZIlFveo_wN8iUtt-63" style="edgeStyle=orthogonalEdgeStyle;rounded=0;orthogonalLoop=1;jettySize=auto;html=1;exitX=0.75;exitY=0;exitDx=0;exitDy=0;entryX=0.75;entryY=1;entryDx=0;entryDy=0;" parent="1" source="UpDTwZIlFveo_wN8iUtt-18" target="UpDTwZIlFveo_wN8iUtt-7" edge="1">
          <mxGeometry relative="1" as="geometry" />
        </mxCell>
        <mxCell id="UpDTwZIlFveo_wN8iUtt-65" value="Response" style="edgeLabel;html=1;align=center;verticalAlign=middle;resizable=0;points=[];" parent="UpDTwZIlFveo_wN8iUtt-63" vertex="1" connectable="0">
          <mxGeometry x="0.1385" y="2" relative="1" as="geometry">
            <mxPoint as="offset" />
          </mxGeometry>
        </mxCell>
        <mxCell id="UpDTwZIlFveo_wN8iUtt-18" value="Py-SupportGPT" style="rounded=1;whiteSpace=wrap;html=1;" parent="1" vertex="1">
          <mxGeometry x="350" y="896" width="120" height="60" as="geometry" />
        </mxCell>
        <mxCell id="UpDTwZIlFveo_wN8iUtt-19" value="LLM" style="rounded=1;whiteSpace=wrap;html=1;" parent="1" vertex="1">
          <mxGeometry x="220" y="1056" width="120" height="60" as="geometry" />
        </mxCell>
        <mxCell id="UpDTwZIlFveo_wN8iUtt-38" style="edgeStyle=orthogonalEdgeStyle;rounded=0;orthogonalLoop=1;jettySize=auto;html=1;exitX=0.5;exitY=1;exitDx=0;exitDy=0;" parent="1" source="UpDTwZIlFveo_wN8iUtt-20" target="UpDTwZIlFveo_wN8iUtt-22" edge="1">
          <mxGeometry relative="1" as="geometry" />
        </mxCell>
        <mxCell id="UpDTwZIlFveo_wN8iUtt-20" value="Founctions/Tools" style="rounded=1;whiteSpace=wrap;html=1;" parent="1" vertex="1">
          <mxGeometry x="350.75" y="1056" width="120" height="60" as="geometry" />
        </mxCell>
        <mxCell id="UpDTwZIlFveo_wN8iUtt-55" style="edgeStyle=orthogonalEdgeStyle;rounded=0;orthogonalLoop=1;jettySize=auto;html=1;exitX=0;exitY=0.5;exitDx=0;exitDy=0;entryX=1;entryY=0.75;entryDx=0;entryDy=0;" parent="1" source="UpDTwZIlFveo_wN8iUtt-21" target="UpDTwZIlFveo_wN8iUtt-18" edge="1">
          <mxGeometry relative="1" as="geometry">
            <Array as="points">
              <mxPoint x="800" y="1066" />
              <mxPoint x="540" y="1066" />
              <mxPoint x="540" y="941" />
            </Array>
          </mxGeometry>
        </mxCell>
        <mxCell id="UpDTwZIlFveo_wN8iUtt-56" value="Search Result" style="edgeLabel;html=1;align=center;verticalAlign=middle;resizable=0;points=[];" parent="UpDTwZIlFveo_wN8iUtt-55" vertex="1" connectable="0">
          <mxGeometry x="0.1759" relative="1" as="geometry">
            <mxPoint x="110" y="-4" as="offset" />
          </mxGeometry>
        </mxCell>
        <mxCell id="UpDTwZIlFveo_wN8iUtt-21" value="Vector Store&lt;br&gt;ChromaDB-&amp;gt;vespa" style="rounded=1;whiteSpace=wrap;html=1;" parent="1" vertex="1">
          <mxGeometry x="800" y="1040" width="120" height="60" as="geometry" />
        </mxCell>
        <mxCell id="UpDTwZIlFveo_wN8iUtt-39" style="edgeStyle=orthogonalEdgeStyle;rounded=0;orthogonalLoop=1;jettySize=auto;html=1;exitX=0.5;exitY=1;exitDx=0;exitDy=0;entryX=0.5;entryY=0;entryDx=0;entryDy=0;" parent="1" source="UpDTwZIlFveo_wN8iUtt-22" target="UpDTwZIlFveo_wN8iUtt-23" edge="1">
          <mxGeometry relative="1" as="geometry" />
        </mxCell>
        <mxCell id="UpDTwZIlFveo_wN8iUtt-22" value="Internal APIs" style="rounded=1;whiteSpace=wrap;html=1;" parent="1" vertex="1">
          <mxGeometry x="350" y="1166" width="120" height="60" as="geometry" />
        </mxCell>
        <mxCell id="UpDTwZIlFveo_wN8iUtt-23" value="Grpc Services" style="rounded=1;whiteSpace=wrap;html=1;" parent="1" vertex="1">
          <mxGeometry x="350" y="1266" width="120" height="60" as="geometry" />
        </mxCell>
        <mxCell id="UpDTwZIlFveo_wN8iUtt-24" value="Grpc Services" style="rounded=1;whiteSpace=wrap;html=1;" parent="1" vertex="1">
          <mxGeometry x="360" y="1276" width="120" height="60" as="geometry" />
        </mxCell>
        <mxCell id="UpDTwZIlFveo_wN8iUtt-32" style="edgeStyle=orthogonalEdgeStyle;rounded=0;orthogonalLoop=1;jettySize=auto;html=1;exitX=1;exitY=0.5;exitDx=0;exitDy=0;" parent="1" source="UpDTwZIlFveo_wN8iUtt-7" target="UpDTwZIlFveo_wN8iUtt-13" edge="1">
          <mxGeometry relative="1" as="geometry" />
        </mxCell>
        <mxCell id="UpDTwZIlFveo_wN8iUtt-46" style="edgeStyle=orthogonalEdgeStyle;rounded=0;orthogonalLoop=1;jettySize=auto;html=1;entryX=0.5;entryY=0;entryDx=0;entryDy=0;fillColor=#ffe6cc;strokeColor=#d79b00;" parent="1" source="UpDTwZIlFveo_wN8iUtt-42" target="UpDTwZIlFveo_wN8iUtt-45" edge="1">
          <mxGeometry relative="1" as="geometry" />
        </mxCell>
        <mxCell id="UpDTwZIlFveo_wN8iUtt-50" value="Enbedding" style="edgeLabel;html=1;align=center;verticalAlign=middle;resizable=0;points=[];" parent="UpDTwZIlFveo_wN8iUtt-46" vertex="1" connectable="0">
          <mxGeometry x="-0.2" y="-1" relative="1" as="geometry">
            <mxPoint x="1" y="62" as="offset" />
          </mxGeometry>
        </mxCell>
        <mxCell id="UpDTwZIlFveo_wN8iUtt-42" value="Internal&lt;br&gt;Knowledge Docs" style="shape=document;whiteSpace=wrap;html=1;boundedLbl=1;" parent="1" vertex="1">
          <mxGeometry x="800" y="600" width="120" height="80" as="geometry" />
        </mxCell>
        <mxCell id="UpDTwZIlFveo_wN8iUtt-47" value="Index" style="edgeStyle=orthogonalEdgeStyle;rounded=0;orthogonalLoop=1;jettySize=auto;html=1;exitX=0.75;exitY=1;exitDx=0;exitDy=0;entryX=0.75;entryY=0;entryDx=0;entryDy=0;fillColor=#ffe6cc;strokeColor=#d79b00;" parent="1" source="UpDTwZIlFveo_wN8iUtt-45" target="UpDTwZIlFveo_wN8iUtt-21" edge="1">
          <mxGeometry relative="1" as="geometry">
            <mxPoint as="offset" />
          </mxGeometry>
        </mxCell>
        <mxCell id="UpDTwZIlFveo_wN8iUtt-53" style="edgeStyle=orthogonalEdgeStyle;rounded=0;orthogonalLoop=1;jettySize=auto;html=1;exitX=0.25;exitY=1;exitDx=0;exitDy=0;entryX=0.25;entryY=0;entryDx=0;entryDy=0;" parent="1" source="UpDTwZIlFveo_wN8iUtt-45" target="UpDTwZIlFveo_wN8iUtt-21" edge="1">
          <mxGeometry relative="1" as="geometry" />
        </mxCell>
        <mxCell id="UpDTwZIlFveo_wN8iUtt-54" value="Search" style="edgeLabel;html=1;align=center;verticalAlign=middle;resizable=0;points=[];" parent="UpDTwZIlFveo_wN8iUtt-53" vertex="1" connectable="0">
          <mxGeometry x="-0.0286" y="-3" relative="1" as="geometry">
            <mxPoint as="offset" />
          </mxGeometry>
        </mxCell>
        <mxCell id="UpDTwZIlFveo_wN8iUtt-45" value="Embedding Model&lt;br&gt;text-embedding-ada-002" style="rounded=1;whiteSpace=wrap;html=1;" parent="1" vertex="1">
          <mxGeometry x="800" y="910" width="120" height="60" as="geometry" />
        </mxCell>
        <mxCell id="UpDTwZIlFveo_wN8iUtt-60" style="edgeStyle=orthogonalEdgeStyle;rounded=0;orthogonalLoop=1;jettySize=auto;html=1;exitX=0.25;exitY=1;exitDx=0;exitDy=0;entryX=0.25;entryY=0;entryDx=0;entryDy=0;" parent="1" source="UpDTwZIlFveo_wN8iUtt-7" target="UpDTwZIlFveo_wN8iUtt-18" edge="1">
          <mxGeometry relative="1" as="geometry" />
        </mxCell>
        <mxCell id="UpDTwZIlFveo_wN8iUtt-64" value="ChatComplete" style="edgeLabel;html=1;align=center;verticalAlign=middle;resizable=0;points=[];" parent="UpDTwZIlFveo_wN8iUtt-60" vertex="1" connectable="0">
          <mxGeometry x="-0.2308" y="-1" relative="1" as="geometry">
            <mxPoint as="offset" />
          </mxGeometry>
        </mxCell>
        <mxCell id="zG3F667VGbXvqsYIKhdl-5" style="edgeStyle=orthogonalEdgeStyle;rounded=0;orthogonalLoop=1;jettySize=auto;html=1;exitX=1;exitY=0.25;exitDx=0;exitDy=0;" edge="1" parent="1" source="UpDTwZIlFveo_wN8iUtt-7" target="zG3F667VGbXvqsYIKhdl-4">
          <mxGeometry relative="1" as="geometry" />
        </mxCell>
        <mxCell id="UpDTwZIlFveo_wN8iUtt-7" value="Chatbot Service" style="rounded=1;whiteSpace=wrap;html=1;" parent="1" vertex="1">
          <mxGeometry x="350" y="675" width="120" height="70" as="geometry" />
        </mxCell>
        <mxCell id="UpDTwZIlFveo_wN8iUtt-8" value="" style="rounded=0;whiteSpace=wrap;html=1;" parent="1" vertex="1">
          <mxGeometry x="367.5" y="675" width="85" height="25" as="geometry" />
        </mxCell>
        <mxCell id="UpDTwZIlFveo_wN8iUtt-9" value="Sunco Client" style="text;html=1;align=center;verticalAlign=middle;whiteSpace=wrap;rounded=0;" parent="1" vertex="1">
          <mxGeometry x="365.5" y="674" width="92.5" height="30" as="geometry" />
        </mxCell>
        <mxCell id="NEkNgyyi-g1eW3Eg_v2F-1" value="SplitText&lt;br&gt;fixed-size/delimiter/semantic" style="rounded=1;whiteSpace=wrap;html=1;" parent="1" vertex="1">
          <mxGeometry x="800" y="710" width="120" height="60" as="geometry" />
        </mxCell>
        <mxCell id="VJW5TG7ulVq54otyxMGV-2" value="&lt;h1 style=&quot;margin-top: 0px;&quot;&gt;System Stats&lt;/h1&gt;&lt;p&gt;- 50k~100k customers&lt;/p&gt;&lt;p&gt;&lt;span style=&quot;background-color: transparent; color: light-dark(rgb(0, 0, 0), rgb(255, 255, 255));&quot;&gt;- 100k requests/day, max 4qps&lt;/span&gt;&lt;/p&gt;&lt;p&gt;&lt;span style=&quot;background-color: transparent; color: light-dark(rgb(0, 0, 0), rgb(255, 255, 255));&quot;&gt;- P90&amp;nbsp;&lt;/span&gt;&lt;span style=&quot;background-color: transparent; color: light-dark(rgb(0, 0, 0), rgb(255, 255, 255));&quot;&gt;latency 3s&lt;/span&gt;&lt;/p&gt;&lt;p&gt;&lt;span style=&quot;background-color: transparent; color: light-dark(rgb(0, 0, 0), rgb(255, 255, 255));&quot;&gt;py-supportgpt: 4pods 1c2G&lt;/span&gt;&lt;/p&gt;&lt;p&gt;chatbot-service: 8pods 0.5c2G&lt;/p&gt;" style="text;html=1;whiteSpace=wrap;overflow=hidden;rounded=0;" parent="1" vertex="1">
          <mxGeometry x="280" y="170" width="240" height="170" as="geometry" />
        </mxCell>
        <mxCell id="VJW5TG7ulVq54otyxMGV-6" value="&lt;b&gt;Embedding Pipeline&lt;/b&gt;" style="text;html=1;align=center;verticalAlign=middle;whiteSpace=wrap;rounded=0;" parent="1" vertex="1">
          <mxGeometry x="940" y="880" width="60" height="30" as="geometry" />
        </mxCell>
        <mxCell id="VJW5TG7ulVq54otyxMGV-7" value="DataApp" style="rounded=1;whiteSpace=wrap;html=1;" parent="1" vertex="1">
          <mxGeometry x="1010" y="480" width="120" height="60" as="geometry" />
        </mxCell>
        <mxCell id="VJW5TG7ulVq54otyxMGV-8" value="Streamlit" style="rounded=1;whiteSpace=wrap;html=1;" parent="1" vertex="1">
          <mxGeometry x="1010" y="350" width="120" height="60" as="geometry" />
        </mxCell>
        <mxCell id="VJW5TG7ulVq54otyxMGV-9" value="&lt;b&gt;&lt;font style=&quot;font-size: 24px;&quot;&gt;Play Ground&lt;/font&gt;&lt;/b&gt;" style="text;html=1;align=center;verticalAlign=middle;whiteSpace=wrap;rounded=0;" parent="1" vertex="1">
          <mxGeometry x="985" y="230" width="170" height="30" as="geometry" />
        </mxCell>
        <mxCell id="zG3F667VGbXvqsYIKhdl-1" value="Storage&lt;br&gt;Integrate with zendesk/sunco&lt;br&gt;provide callback" style="text;html=1;align=center;verticalAlign=middle;whiteSpace=wrap;rounded=0;" vertex="1" parent="1">
          <mxGeometry x="430" y="590" width="110" height="75" as="geometry" />
        </mxCell>
        <mxCell id="zG3F667VGbXvqsYIKhdl-2" value="Agent Framework:&lt;br&gt;1. runnbook&lt;br&gt;2. internal functions&lt;br&gt;3. vector search" style="text;html=1;align=center;verticalAlign=middle;whiteSpace=wrap;rounded=0;" vertex="1" parent="1">
          <mxGeometry x="230" y="881" width="110" height="75" as="geometry" />
        </mxCell>
        <mxCell id="zG3F667VGbXvqsYIKhdl-3" value="Customized Framework instead of LangChain/LIamaIndex&lt;br&gt;for flexibility and speed&lt;br&gt;e.g: we need to pass context like user token to tool funcs" style="text;html=1;align=center;verticalAlign=middle;whiteSpace=wrap;rounded=0;" vertex="1" parent="1">
          <mxGeometry x="60" y="880" width="170" height="85" as="geometry" />
        </mxCell>
        <mxCell id="zG3F667VGbXvqsYIKhdl-4" value="DB&lt;br&gt;conversation&lt;br&gt;messages&lt;br&gt;tickets" style="shape=cylinder3;whiteSpace=wrap;html=1;boundedLbl=1;backgroundOutline=1;size=15;" vertex="1" parent="1">
          <mxGeometry x="510" y="510" width="60" height="80" as="geometry" />
        </mxCell>
        <mxCell id="zG3F667VGbXvqsYIKhdl-6" value="DB&lt;br&gt;conversation&lt;br&gt;messages&lt;br&gt;tickets" style="shape=cylinder3;whiteSpace=wrap;html=1;boundedLbl=1;backgroundOutline=1;size=15;" vertex="1" parent="1">
          <mxGeometry x="180" y="1480" width="60" height="80" as="geometry" />
        </mxCell>
        <mxCell id="zG3F667VGbXvqsYIKhdl-7" value="Tagging Pipeline" style="text;html=1;align=center;verticalAlign=middle;whiteSpace=wrap;rounded=0;" vertex="1" parent="1">
          <mxGeometry x="370" y="1400" width="60" height="30" as="geometry" />
        </mxCell>
        <mxCell id="zG3F667VGbXvqsYIKhdl-12" style="edgeStyle=orthogonalEdgeStyle;rounded=0;orthogonalLoop=1;jettySize=auto;html=1;exitX=0.5;exitY=0;exitDx=0;exitDy=0;exitPerimeter=0;entryX=0.5;entryY=1;entryDx=0;entryDy=0;" edge="1" parent="1" source="zG3F667VGbXvqsYIKhdl-8" target="zG3F667VGbXvqsYIKhdl-10">
          <mxGeometry relative="1" as="geometry" />
        </mxCell>
        <mxCell id="zG3F667VGbXvqsYIKhdl-8" value="Data WareHouse" style="shape=cylinder3;whiteSpace=wrap;html=1;boundedLbl=1;backgroundOutline=1;size=15;" vertex="1" parent="1">
          <mxGeometry x="510" y="370" width="60" height="80" as="geometry" />
        </mxCell>
        <mxCell id="zG3F667VGbXvqsYIKhdl-9" style="edgeStyle=orthogonalEdgeStyle;rounded=0;orthogonalLoop=1;jettySize=auto;html=1;exitX=0.5;exitY=0;exitDx=0;exitDy=0;exitPerimeter=0;entryX=0.5;entryY=1;entryDx=0;entryDy=0;entryPerimeter=0;" edge="1" parent="1" source="zG3F667VGbXvqsYIKhdl-4" target="zG3F667VGbXvqsYIKhdl-8">
          <mxGeometry relative="1" as="geometry" />
        </mxCell>
        <mxCell id="zG3F667VGbXvqsYIKhdl-16" style="edgeStyle=orthogonalEdgeStyle;rounded=0;orthogonalLoop=1;jettySize=auto;html=1;exitX=0.5;exitY=0;exitDx=0;exitDy=0;entryX=0.5;entryY=1;entryDx=0;entryDy=0;" edge="1" parent="1" source="zG3F667VGbXvqsYIKhdl-10" target="zG3F667VGbXvqsYIKhdl-14">
          <mxGeometry relative="1" as="geometry" />
        </mxCell>
        <mxCell id="zG3F667VGbXvqsYIKhdl-10" value="Tagging Pipeline" style="rounded=1;whiteSpace=wrap;html=1;" vertex="1" parent="1">
          <mxGeometry x="480" y="270" width="120" height="60" as="geometry" />
        </mxCell>
        <mxCell id="zG3F667VGbXvqsYIKhdl-14" value="LLM" style="rounded=1;whiteSpace=wrap;html=1;" vertex="1" parent="1">
          <mxGeometry x="480" y="170" width="120" height="60" as="geometry" />
        </mxCell>
        <mxCell id="zG3F667VGbXvqsYIKhdl-17" style="edgeStyle=orthogonalEdgeStyle;rounded=0;orthogonalLoop=1;jettySize=auto;html=1;exitX=0.5;exitY=1;exitDx=0;exitDy=0;entryX=0.5;entryY=0;entryDx=0;entryDy=0;entryPerimeter=0;" edge="1" parent="1" source="zG3F667VGbXvqsYIKhdl-10" target="zG3F667VGbXvqsYIKhdl-8">
          <mxGeometry relative="1" as="geometry" />
        </mxCell>
        <mxCell id="zG3F667VGbXvqsYIKhdl-18" value="Dashboard -&amp;nbsp;&lt;br&gt;Streamlit" style="rounded=1;whiteSpace=wrap;html=1;" vertex="1" parent="1">
          <mxGeometry x="680" y="380" width="120" height="60" as="geometry" />
        </mxCell>
        <mxCell id="zG3F667VGbXvqsYIKhdl-20" style="edgeStyle=orthogonalEdgeStyle;rounded=0;orthogonalLoop=1;jettySize=auto;html=1;exitX=0;exitY=0.5;exitDx=0;exitDy=0;entryX=1;entryY=0.5;entryDx=0;entryDy=0;entryPerimeter=0;" edge="1" parent="1" source="zG3F667VGbXvqsYIKhdl-18" target="zG3F667VGbXvqsYIKhdl-8">
          <mxGeometry relative="1" as="geometry" />
        </mxCell>
        <mxCell id="zG3F667VGbXvqsYIKhdl-21" value="Superset" style="rounded=1;whiteSpace=wrap;html=1;" vertex="1" parent="1">
          <mxGeometry x="680" y="460" width="120" height="60" as="geometry" />
        </mxCell>
        <mxCell id="zG3F667VGbXvqsYIKhdl-22" style="edgeStyle=orthogonalEdgeStyle;rounded=0;orthogonalLoop=1;jettySize=auto;html=1;exitX=0;exitY=0.5;exitDx=0;exitDy=0;entryX=1;entryY=0;entryDx=0;entryDy=52.5;entryPerimeter=0;" edge="1" parent="1" source="zG3F667VGbXvqsYIKhdl-21" target="zG3F667VGbXvqsYIKhdl-8">
          <mxGeometry relative="1" as="geometry" />
        </mxCell>
      </root>
    </mxGraphModel>
  </diagram>
</mxfile>
